<svg width="32" height="32" viewBox="0 0 32 32" fill="none" xmlns="http://www.w3.org/2000/svg">
<path d="M30.9117 9.8416C30.8949 8.5793 30.6586 7.32956 30.2134 6.14826C29.8273 5.15185 29.2376 4.24693 28.482 3.49131C27.7264 2.7357 26.8215 2.14601 25.8251 1.75993C24.659 1.32219 23.427 1.0855 22.1817 1.05993C20.5784 0.988262 20.0701 0.968262 16.0001 0.968262C11.9301 0.968262 11.4084 0.968262 9.81672 1.05993C8.57199 1.08569 7.34064 1.32238 6.17506 1.75993C5.17849 2.14574 4.27343 2.73534 3.51778 3.49098C2.76213 4.24663 2.17254 5.15169 1.78672 6.14826C1.34811 7.31348 1.11193 8.54511 1.08839 9.78993C1.01672 11.3949 0.995056 11.9033 0.995056 15.9733C0.995056 20.0433 0.995056 20.5633 1.08839 22.1566C1.11339 23.4033 1.34839 24.6333 1.78672 25.8016C2.17319 26.7979 2.76322 27.7026 3.51912 28.4579C4.27502 29.2132 5.18016 29.8026 6.17672 30.1883C7.33911 30.6436 8.57068 30.8972 9.81839 30.9383C11.4234 31.0099 11.9317 31.0316 16.0017 31.0316C20.0717 31.0316 20.5934 31.0316 22.1851 30.9383C23.4303 30.9137 24.6623 30.6776 25.8284 30.2399C26.8245 29.8534 27.7292 29.2636 28.4848 28.508C29.2403 27.7524 29.8302 26.8477 30.2167 25.8516C30.6551 24.6849 30.8901 23.4549 30.9151 22.2066C30.9867 20.6033 31.0084 20.0949 31.0084 16.0233C31.0051 11.9533 31.0051 11.4366 30.9117 9.8416ZM15.9901 23.6699C11.7334 23.6699 8.28506 20.2216 8.28506 15.9649C8.28506 11.7083 11.7334 8.25993 15.9901 8.25993C18.0336 8.25993 19.9933 9.0717 21.4383 10.5167C22.8833 11.9616 23.6951 13.9214 23.6951 15.9649C23.6951 18.0084 22.8833 19.9682 21.4383 21.4132C19.9933 22.8582 18.0336 23.6699 15.9901 23.6699ZM24.0017 9.7716C23.0067 9.7716 22.2051 8.96826 22.2051 7.97493C22.2051 7.7391 22.2515 7.50557 22.3418 7.28769C22.432 7.06981 22.5643 6.87184 22.731 6.70508C22.8978 6.53832 23.0958 6.40604 23.3137 6.3158C23.5315 6.22555 23.7651 6.1791 24.0009 6.1791C24.2367 6.1791 24.4702 6.22555 24.6881 6.3158C24.906 6.40604 25.104 6.53832 25.2707 6.70508C25.4375 6.87184 25.5698 7.06981 25.66 7.28769C25.7503 7.50557 25.7967 7.7391 25.7967 7.97493C25.7967 8.96826 24.9934 9.7716 24.0017 9.7716Z" fill="white"/>
</svg>
