<svg width="43" height="47" viewBox="0 0 43 47" fill="none" xmlns="http://www.w3.org/2000/svg">
<path d="M4.7 47H37.6C40.192 47 42.3 44.892 42.3 42.3V16.45C42.3 15.8267 42.0524 15.229 41.6117 14.7883C41.171 14.3476 40.5733 14.1 39.95 14.1H32.9V11.75C32.9 5.27105 27.6289 0 21.15 0C14.671 0 9.4 5.27105 9.4 11.75V14.1H2.35C1.72674 14.1 1.12901 14.3476 0.688299 14.7883C0.247588 15.229 0 15.8267 0 16.45V42.3C0 44.892 2.10795 47 4.7 47ZM14.1 11.75C14.1 7.8631 17.2631 4.7 21.15 4.7C25.0369 4.7 28.2 7.8631 28.2 11.75V14.1H14.1V11.75ZM4.7 18.8H9.4V23.5H14.1V18.8H28.2V23.5H32.9V18.8H37.6L37.6047 42.3H4.7V18.8Z" fill="url(#paint0_linear)"/>
<defs>
<linearGradient id="paint0_linear" x1="0" y1="23.5" x2="42.3" y2="23.5" gradientUnits="userSpaceOnUse">
<stop stop-color="#45E6FC"/>
<stop offset="1" stop-color="#356EFF"/>
</linearGradient>
</defs>
</svg>
