<svg width="68" height="72" viewBox="0 0 68 72" fill="none" xmlns="http://www.w3.org/2000/svg">
<path d="M49 13.3333C50.7681 13.3333 52.4638 12.631 53.714 11.3807C54.9642 10.1305 55.6666 8.43478 55.6666 6.66667C55.6666 4.89856 54.9642 3.20286 53.714 1.95262C52.4638 0.702379 50.7681 0 49 0C47.2318 0 45.5362 0.702379 44.2859 1.95262C43.0357 3.20286 42.3333 4.89856 42.3333 6.66667C42.3333 8.43478 43.0357 10.1305 44.2859 11.3807C45.5362 12.631 47.2318 13.3333 49 13.3333ZM37 59.6667L40.3333 45L47.3333 51.6667V71.6667H54V46.6667L47 40L49 30C51.2837 32.6174 54.1015 34.7154 57.2638 36.1528C60.4261 37.5903 63.8596 38.3338 67.3333 38.3333V31.6667C61.4666 31.7667 56 28.7 53 23.6667L49.6666 18.3333C48.4666 16.3333 46.3333 15 44 15C43 15 42.3333 15.3333 41.3333 15.3333L24 22.6667V38.3333H30.6666V27L36.6666 24.6667L31.3333 51.6667L15 48.3333L13.6666 55L37 59.6667ZM7.33329 25C6.44924 25 5.60139 24.6488 4.97627 24.0237C4.35115 23.3986 3.99996 22.5507 3.99996 21.6667C3.99996 20.7826 4.35115 19.9348 4.97627 19.3096C5.60139 18.6845 6.44924 18.3333 7.33329 18.3333H17.3333V25H7.33329ZM10.6666 11.6667C9.78257 11.6667 8.93473 11.3155 8.3096 10.6904C7.68448 10.0652 7.33329 9.21739 7.33329 8.33333C7.33329 7.44928 7.68448 6.60143 8.3096 5.97631C8.93473 5.35119 9.78257 5 10.6666 5H27.3333V11.6667H10.6666ZM3.99996 38.3333C3.1159 38.3333 2.26806 37.9821 1.64294 37.357C1.01782 36.7319 0.666626 35.8841 0.666626 35C0.666626 34.1159 1.01782 33.2681 1.64294 32.643C2.26806 32.0179 3.1159 31.6667 3.99996 31.6667H17.3333V38.3333H3.99996Z" fill="url(#paint0_linear)"/>
<defs>
<linearGradient id="paint0_linear" x1="0.666626" y1="35.8333" x2="67.3333" y2="35.8333" gradientUnits="userSpaceOnUse">
<stop stop-color="#45E6FC"/>
<stop offset="1" stop-color="#356EFF"/>
</linearGradient>
</defs>
</svg>
