<svg width="68" height="68" viewBox="0 0 68 68" fill="none" xmlns="http://www.w3.org/2000/svg">
<path d="M4.99669 52.6531C6.43669 57.0931 10.8134 59.9264 15.4834 59.9264H15.6667C16.0951 62.0175 17.2323 63.8965 18.8861 65.246C20.5399 66.5955 22.6088 67.3327 24.7434 67.3331C26.2667 67.3331 27.69 66.9497 28.95 66.2897C29.4759 66.0014 29.9134 65.5755 30.2158 65.0576C30.5182 64.5397 30.674 63.9494 30.6667 63.3497V4.08972C30.6734 3.32605 30.4169 2.58336 29.9404 1.9866C29.4638 1.38984 28.7963 0.975416 28.05 0.813055C26.3777 0.48824 24.645 0.723723 23.12 1.48305C20.64 2.66972 19.1867 5.31972 19.1867 8.07639V8.25972C17.3307 7.88092 15.4032 8.08041 13.6642 8.83129C11.9252 9.58217 10.4582 10.8483 9.46126 12.4589C8.46429 14.0696 7.98524 15.9472 8.08873 17.8386C8.19222 19.73 8.87327 21.5442 10.04 23.0364C7.42697 23.4458 5.04628 24.7757 3.32749 26.786C1.60871 28.7963 0.665019 31.3548 0.666689 33.9997C0.666689 37.9264 2.70336 41.3697 5.77669 43.3731C4.34336 45.9431 3.87336 49.1931 4.99669 52.6531ZM57.96 23.0364C59.1268 21.5442 59.8078 19.73 59.9113 17.8386C60.0148 15.9472 59.5358 14.0696 58.5388 12.4589C57.5418 10.8483 56.0749 9.58217 54.3358 8.83129C52.5968 8.08041 50.6693 7.88092 48.8134 8.25972V8.07639C48.8134 5.32305 47.3567 2.66972 44.8767 1.48305C43.353 0.723498 41.6212 0.487987 39.95 0.813055C39.2041 0.975989 38.5369 1.39057 38.0604 1.9872C37.584 2.58384 37.3273 3.32621 37.3334 4.08972V63.3464C37.3334 64.5631 37.9734 65.7197 39.0534 66.2864C40.3134 66.9497 41.7334 67.3331 43.2567 67.3331C45.3917 67.3326 47.461 66.5949 49.1149 65.2447C50.7687 63.8946 51.9056 62.0148 52.3334 59.9231H52.52C57.1867 59.9231 61.5667 57.0897 63.0067 52.6497C64.13 49.1897 63.66 45.9397 62.2267 43.3697C63.7923 42.3582 65.0798 40.9709 65.9717 39.3342C66.8637 37.6976 67.3318 35.8637 67.3334 33.9997C67.335 31.3548 66.3913 28.7963 64.6726 26.786C62.9538 24.7757 60.5731 23.4458 57.96 23.0364Z" fill="url(#paint0_linear)"/>
<defs>
<linearGradient id="paint0_linear" x1="0.666687" y1="34.0019" x2="67.3334" y2="34.0019" gradientUnits="userSpaceOnUse">
<stop stop-color="#45E6FC"/>
<stop offset="1" stop-color="#356EFF"/>
</linearGradient>
</defs>
</svg>
