<svg width="47" height="63" viewBox="0 0 47 63" fill="none" xmlns="http://www.w3.org/2000/svg">
<path d="M27.9795 0C33.8602 4.7781 38.5005 10.567 41.9003 17.3666C45.3001 24.1662 47 31.4712 47 39.2815C47 45.7136 44.7028 51.2268 40.1085 55.8211C35.5142 60.4155 29.978 62.7126 23.5 62.7126C17.022 62.7126 11.4858 60.4155 6.8915 55.8211C2.29717 51.2268 0 45.7136 0 39.2815C0 29.3578 3.17009 20.6285 9.51026 13.0938L9.37243 14.1965C9.37243 17.2287 10.4062 19.8016 12.4736 21.915C14.5411 24.0284 17.0909 25.085 20.1232 25.085C23.0635 25.085 25.4526 24.0284 27.2903 21.915C29.1281 19.8016 30.0469 17.2287 30.0469 14.1965C30.0469 12.2669 29.8861 10.1305 29.5645 7.78739C29.2429 5.44428 28.8983 3.58358 28.5308 2.20528L27.9795 0ZM22.6041 53.8915C26.5552 53.8915 29.9091 52.5132 32.6657 49.7566C35.4223 47 36.8006 43.6921 36.8006 39.8328C36.8006 35.698 36.2033 31.7468 35.0088 27.9795C32.2522 31.7468 27.7498 34.2737 21.5015 35.5601C18.8368 36.1114 16.7923 37.1911 15.368 38.7991C13.9438 40.4071 13.2317 42.3597 13.2317 44.6569C13.2317 47.2297 14.1505 49.412 15.9883 51.2038C17.826 52.9956 20.0313 53.8915 22.6041 53.8915Z" fill="url(#paint0_linear)"/>
<defs>
<linearGradient id="paint0_linear" x1="0" y1="31.3563" x2="47" y2="31.3563" gradientUnits="userSpaceOnUse">
<stop stop-color="#45E6FC"/>
<stop offset="1" stop-color="#356EFF"/>
</linearGradient>
</defs>
</svg>
