<svg width="47" height="47" viewBox="0 0 47 47" fill="none" xmlns="http://www.w3.org/2000/svg">
<path d="M32.9 16.45H39.95L28.2 32.9L32.9 16.45ZM18.8 16.45H28.2L23.5 35.25L18.8 16.45ZM7.05 16.45H14.1L18.8 32.9L7.05 16.45ZM30.55 4.7H35.25L39.95 11.75H32.9L30.55 4.7ZM21.15 4.7H25.85L28.2 11.75H18.8L21.15 4.7ZM11.75 4.7H16.45L14.1 11.75H7.05L11.75 4.7ZM9.4 0L0 14.1L23.5 47L47 14.1L37.6 0H9.4Z" fill="url(#paint0_linear)"/>
<defs>
<linearGradient id="paint0_linear" x1="0" y1="23.5" x2="47" y2="23.5" gradientUnits="userSpaceOnUse">
<stop stop-color="#45E6FC"/>
<stop offset="1" stop-color="#356EFF"/>
</linearGradient>
</defs>
</svg>
