<svg width="40" height="40" viewBox="0 0 40 40" fill="none" xmlns="http://www.w3.org/2000/svg">
<path d="M20 0.800049C9.39605 0.800049 0.800049 9.39605 0.800049 20C0.800049 30.604 9.39605 39.2001 20 39.2001C30.604 39.2001 39.2001 30.604 39.2001 20C39.2001 9.39605 30.604 0.800049 20 0.800049ZM27.81 16.528C27.818 16.692 27.82 16.8561 27.82 17.0161C27.82 22.0161 24.018 27.778 17.062 27.778C15.0066 27.7815 12.994 27.1911 11.266 26.078C11.56 26.114 11.862 26.128 12.168 26.128C13.94 26.128 15.5701 25.5261 16.864 24.51C16.0755 24.4946 15.3114 24.2334 14.6783 23.7631C14.0452 23.2927 13.5745 22.6366 13.332 21.886C13.8984 21.9937 14.4817 21.9712 15.038 21.82C14.1821 21.647 13.4124 21.1832 12.8595 20.5074C12.3065 19.8316 12.0043 18.9853 12.004 18.112V18.066C12.514 18.348 13.098 18.5201 13.718 18.5401C12.9156 18.0059 12.3476 17.1854 12.1301 16.2463C11.9127 15.3072 12.0622 14.3206 12.548 13.488C13.498 14.656 14.6826 15.6115 16.0252 16.2927C17.3678 16.9738 18.8385 17.3654 20.342 17.442C20.1509 16.6307 20.2332 15.7789 20.5761 15.0191C20.919 14.2593 21.5033 13.634 22.2382 13.2406C22.9731 12.8471 23.8174 12.7075 24.6398 12.8434C25.4623 12.9793 26.2168 13.3831 26.786 13.992C27.6324 13.8246 28.444 13.5142 29.1861 13.074C28.904 13.9503 28.3134 14.6944 27.524 15.168C28.2737 15.0778 29.0058 14.8762 29.696 14.57C29.189 15.3298 28.5503 15.9929 27.81 16.528Z" fill="url(#paint0_linear)"/>
<defs>
<linearGradient id="paint0_linear" x1="0.800049" y1="20" x2="39.2001" y2="20" gradientUnits="userSpaceOnUse">
<stop stop-color="#45E6FC"/>
<stop offset="1" stop-color="#356EFF"/>
</linearGradient>
</defs>
</svg>
