<svg width="81" height="30" viewBox="0 0 81 30" fill="none" xmlns="http://www.w3.org/2000/svg">
<path d="M17.48 19.84C17.9867 19.84 18.24 20.48 18.24 21.76C18.24 23.04 18 24.1867 17.52 25.2C17.04 26.2133 16.4533 27 15.76 27.56C15.0933 28.12 14.3333 28.5733 13.48 28.92C10.6267 30.1733 7.96 30.1467 5.48 28.84C4.22667 28.1733 3.26667 27.3867 2.6 26.48C1.93333 25.5467 1.4 24.44 1 23.16C0.386667 21.24 0.08 19.2267 0.08 17.12C0.08 15.0133 0.28 13.04 0.68 11.2C1.08 9.36 1.69333 7.61333 2.52 5.96C3.34667 4.28 4.52 2.93333 6.04 1.92C7.56 0.906665 9.32 0.399999 11.32 0.399999C12.1733 0.399999 13.0533 0.546665 13.96 0.839998C14.8933 1.10667 15.6533 1.45333 16.24 1.88C16.8267 2.28 17.3467 2.90666 17.8 3.76C18.2533 4.61333 18.48 5.61333 18.48 6.76C18.48 7.98666 18.1867 9.09333 17.6 10.08C17.3333 10.5333 16.9067 10.9467 16.32 11.32C15.7333 11.6667 15.04 11.84 14.24 11.84C13.0133 11.84 12.1467 11.2933 11.64 10.2C11.4267 9.77333 11.32 9.30667 11.32 8.8C11.32 8.29333 11.4933 8 11.84 7.92C12.2133 7.81333 12.56 7.52 12.88 7.04C13.2 6.56 13.36 6 13.36 5.36C13.36 4.85333 13.2267 4.41333 12.96 4.04C12.4533 3.37333 11.72 3.04 10.76 3.04C9.8 3.04 8.92 3.48 8.12 4.36C7.34667 5.24 6.76 6.34667 6.36 7.68C5.56 10.3467 5.16 12.8 5.16 15.04C5.16 17.28 5.46667 19.08 6.08 20.44C6.82667 22.12 7.77333 23.24 8.92 23.8C9.64 24.1467 10.4667 24.32 11.4 24.32C12.9733 24.32 14.3867 23.6133 15.64 22.2C16.1733 21.64 16.6133 20.9733 16.96 20.2C17.0933 19.96 17.2667 19.84 17.48 19.84ZM33.7944 13.84C33.501 13.92 33.3544 14.0133 33.3544 14.12C33.3544 14.2 33.6744 14.36 34.3144 14.6C34.9544 14.84 35.5544 15.2133 36.1144 15.72C36.701 16.2267 37.1144 16.84 37.3544 17.56C37.7277 18.6533 37.9144 19.8267 37.9144 21.08C37.9144 22.3333 38.0077 23.3733 38.1944 24.2C38.381 25 38.6077 25.6133 38.8744 26.04C39.4077 26.9467 39.901 27.5067 40.3544 27.72L40.6344 27.88C40.7944 27.9867 40.8744 28.12 40.8744 28.28C40.8744 28.68 40.221 29.0267 38.9144 29.32C37.6077 29.64 36.5944 29.8 35.8744 29.8C34.461 29.8 33.5544 29.24 33.1544 28.12C32.781 26.9733 32.5944 25.0267 32.5944 22.28V20.08C32.5944 17.76 31.901 16.28 30.5144 15.64C29.981 15.4 29.341 15.28 28.5944 15.28H28.5544C28.3144 15.28 28.1944 15.0533 28.1944 14.6C28.1944 14.12 28.3277 13.64 28.5944 13.16C28.8877 12.68 29.141 12.44 29.3544 12.44C30.2344 12.44 30.9944 12.28 31.6344 11.96C32.2744 11.6133 32.741 11.2 33.0344 10.72C33.6477 9.70667 33.981 8.84 34.0344 8.12V7.6C34.0344 6.61333 33.8744 5.78667 33.5544 5.12C33.2344 4.42667 32.8344 3.94667 32.3544 3.68C31.5544 3.25333 30.741 3.04 29.9144 3.04C29.0877 3.04 28.4077 3.10666 27.8744 3.24C27.1277 3.45333 26.7544 3.68 26.7544 3.92C26.5144 7.41333 26.3944 10.7867 26.3944 14.04C26.3944 17.2667 26.4344 19.7467 26.5144 21.48C26.621 23.1867 26.7144 24.5733 26.7944 25.64C26.901 26.68 26.9544 27.2933 26.9544 27.48C26.9544 27.8267 26.861 28.0667 26.6744 28.2C25.581 29.2133 23.861 29.72 21.5144 29.72C21.1144 29.72 20.9144 29.5867 20.9144 29.32C20.9144 29.24 20.9544 29.0533 21.0344 28.76C21.301 28.1467 21.4877 26.2 21.5944 22.92C21.7277 19.64 21.7944 16.6533 21.7944 13.96C21.7944 11.24 21.741 9.04 21.6344 7.36C21.4744 4.82667 21.2077 3.30667 20.8344 2.8C20.541 2.42667 20.3944 2.17333 20.3944 2.04C20.3944 1.88 20.541 1.72 20.8344 1.56C22.541 0.759999 25.6344 0.359999 30.1144 0.359999C33.7144 0.359999 36.4077 1.37333 38.1944 3.4C39.1544 4.52 39.6344 5.92 39.6344 7.6C39.6344 8.61333 39.4344 9.52 39.0344 10.32C38.6344 11.12 38.141 11.7333 37.5544 12.16C36.4344 13.0133 35.381 13.5333 34.3944 13.72L33.7944 13.84ZM58.9272 24.04C58.9272 25.9067 58.3272 27.2933 57.1272 28.2C55.9539 29.1067 54.3005 29.56 52.1672 29.56C48.7539 29.56 46.2339 28.4267 44.6072 26.16C43.0072 23.8933 42.2072 20.9333 42.2072 17.28C42.2072 16.6933 42.2339 15.84 42.2872 14.72H40.0472C39.8339 14.72 39.7272 14.64 39.7272 14.48C39.7272 14.0267 39.9539 13.48 40.4072 12.84C40.8605 12.2 41.3539 11.88 41.8872 11.88H42.6472C42.9939 9.96 43.5539 8.26667 44.3272 6.8C45.1272 5.33333 45.9539 4.2 46.8072 3.4C47.6872 2.6 48.6472 1.96 49.6872 1.48C51.3405 0.679998 53.0739 0.279998 54.8872 0.279998C56.7005 0.279998 57.8339 0.573331 58.2872 1.16C58.5005 1.45333 58.6072 2 58.6072 2.8C58.6072 3.57333 58.5139 3.96 58.3272 3.96C58.3005 3.96 58.1805 3.90666 57.9672 3.8C57.2739 3.48 56.4072 3.32 55.3672 3.32C53.1005 3.32 51.3272 4.12 50.0472 5.72C48.7939 7.32 47.9539 9.37333 47.5272 11.88C49.5539 11.8533 52.3005 11.84 55.7672 11.84C56.0339 11.84 56.1672 11.9333 56.1672 12.12C56.1672 12.5467 55.9539 13.0933 55.5272 13.76C55.1005 14.4 54.6205 14.72 54.0872 14.72H47.2072C47.1805 15.04 47.1672 15.7467 47.1672 16.84C47.1672 17.9067 47.3539 19.04 47.7272 20.24C48.1272 21.4133 48.8472 22.4133 49.8872 23.24C50.9539 24.0667 52.3272 24.48 54.0072 24.48C55.6872 24.48 57.1005 24.1067 58.2472 23.36C58.3805 23.2533 58.5005 23.2 58.6072 23.2C58.8205 23.2 58.9272 23.48 58.9272 24.04ZM70.7581 3.32C69.7981 3.32 68.9981 3.66667 68.3581 4.36C67.2381 5.58666 66.6781 7.14667 66.6781 9.04C66.6781 10.9067 67.1581 12.0267 68.1181 12.4C68.3581 12.48 68.4781 12.6533 68.4781 12.92C68.4781 13.72 68.2115 14.4 67.6781 14.96C67.1448 15.4933 66.4915 15.8133 65.7181 15.92C65.4781 15.92 65.3581 16.0133 65.3581 16.2C65.3315 16.4933 65.3181 16.92 65.3181 17.48C65.3181 18.0133 65.3448 18.6133 65.3981 19.28C65.4515 19.92 65.5715 20.6933 65.7581 21.6C65.9715 22.48 66.2381 23.2533 66.5581 23.92C66.9048 24.56 67.3848 25.12 67.9981 25.6C68.6381 26.0533 69.4515 26.28 70.4381 26.28C71.4515 26.28 72.3581 25.88 73.1581 25.08C73.9581 24.28 74.5181 23.24 74.8381 21.96C75.4248 19.72 75.7181 17.5733 75.7181 15.52C75.7181 13.44 75.5848 11.6133 75.3181 10.04C75.0515 8.46666 74.7315 7.26667 74.3581 6.44C74.0115 5.61333 73.5848 4.94667 73.0781 4.44C72.5715 3.93333 72.1448 3.62667 71.7981 3.52C71.4515 3.38667 71.1048 3.32 70.7581 3.32ZM63.4781 7.28L63.6381 7.04C63.9048 5.81333 64.3315 4.76 64.9181 3.88C65.5315 2.97333 66.1315 2.30666 66.7181 1.88C67.3315 1.42666 68.0115 1.08 68.7581 0.839998C69.7448 0.519999 70.6115 0.359999 71.3581 0.359999C73.1448 0.359999 74.6781 0.773332 75.9581 1.6C77.2648 2.42666 78.2515 3.54667 78.9181 4.96C80.1448 7.65333 80.7581 10.7067 80.7581 14.12C80.7581 19.8533 79.4248 24.0267 76.7581 26.64C75.4515 27.92 74.0115 28.7867 72.4381 29.24C71.4515 29.5333 70.5048 29.68 69.5981 29.68C66.2648 29.68 63.8115 28.5467 62.2381 26.28C60.6648 23.9867 59.8781 21.0933 59.8781 17.6C59.8781 15.5733 60.0515 13.72 60.3981 12.04C60.7448 10.3333 61.1048 9.13333 61.4781 8.44L61.9981 7.4C62.1048 7.16 62.2781 7.04 62.5181 7.04C62.7581 7.04 62.9315 7.06667 63.0381 7.12C63.1715 7.14667 63.2648 7.18667 63.3181 7.24C63.3981 7.26667 63.4515 7.28 63.4781 7.28Z" fill="white"/>
</svg>
